solid OpenSCAD_Model
  facet normal 0 0 -1
    outer loop
      vertex 0 8 0
      vertex 1.2 8 0
      vertex 0 0 0
    endloop
  endfacet
  facet normal -0 0 -1
    outer loop
      vertex 0 0 0
      vertex -6.2 -1.2 0
      vertex -5 0 0
    endloop
  endfacet
  facet normal 0 -0 -1
    outer loop
      vertex 1.2 8 0
      vertex 1.2 -1.2 0
      vertex 0 0 0
    endloop
  endfacet
  facet normal 0 -0 -1
    outer loop
      vertex 0 0 0
      vertex 1.2 -1.2 0
      vertex -6.2 -1.2 0
    endloop
  endfacet
  facet normal -0 -0 -1
    outer loop
      vertex -5 8 0
      vertex -5 0 0
      vertex -6.2 8 0
    endloop
  endfacet
  facet normal 0 0 -1
    outer loop
      vertex -6.2 8 0
      vertex -5 0 0
      vertex -6.2 -1.2 0
    endloop
  endfacet
  facet normal 0 0 1
    outer loop
      vertex 0 0 10
      vertex 1.2 8 10
      vertex 0 8 10
    endloop
  endfacet
  facet normal -0 0 1
    outer loop
      vertex -5 0 10
      vertex -6.2 -1.2 10
      vertex 0 0 10
    endloop
  endfacet
  facet normal -0 0 1
    outer loop
      vertex 0 0 10
      vertex 1.2 -1.2 10
      vertex 1.2 8 10
    endloop
  endfacet
  facet normal 0 0 1
    outer loop
      vertex -6.2 -1.2 10
      vertex 1.2 -1.2 10
      vertex 0 0 10
    endloop
  endfacet
  facet normal -0 0 1
    outer loop
      vertex -6.2 8 10
      vertex -5 0 10
      vertex -5 8 10
    endloop
  endfacet
  facet normal 0 0 1
    outer loop
      vertex -6.2 -1.2 10
      vertex -5 0 10
      vertex -6.2 8 10
    endloop
  endfacet
  facet normal 0 1 0
    outer loop
      vertex 0 8 0
      vertex 1.2 8 10
      vertex 1.2 8 0
    endloop
  endfacet
  facet normal 0 1 0
    outer loop
      vertex 0 8 0
      vertex 0 8 10
      vertex 1.2 8 10
    endloop
  endfacet
  facet normal -1 0 0
    outer loop
      vertex 0 0 0
      vertex 0 8 10
      vertex 0 8 0
    endloop
  endfacet
  facet normal -1 0 0
    outer loop
      vertex 0 0 0
      vertex 0 0 10
      vertex 0 8 10
    endloop
  endfacet
  facet normal 0 1 0
    outer loop
      vertex -5 0 0
      vertex 0 0 10
      vertex 0 0 0
    endloop
  endfacet
  facet normal 0 1 0
    outer loop
      vertex -5 0 0
      vertex -5 0 10
      vertex 0 0 10
    endloop
  endfacet
  facet normal 1 0 0
    outer loop
      vertex -5 8 0
      vertex -5 0 10
      vertex -5 0 0
    endloop
  endfacet
  facet normal 1 0 -0
    outer loop
      vertex -5 8 0
      vertex -5 8 10
      vertex -5 0 10
    endloop
  endfacet
  facet normal 0 1 0
    outer loop
      vertex -6.2 8 0
      vertex -5 8 10
      vertex -5 8 0
    endloop
  endfacet
  facet normal 0 1 0
    outer loop
      vertex -6.2 8 0
      vertex -6.2 8 10
      vertex -5 8 10
    endloop
  endfacet
  facet normal -1 0 0
    outer loop
      vertex -6.2 -1.2 0
      vertex -6.2 8 10
      vertex -6.2 8 0
    endloop
  endfacet
  facet normal -1 0 0
    outer loop
      vertex -6.2 -1.2 0
      vertex -6.2 -1.2 10
      vertex -6.2 8 10
    endloop
  endfacet
  facet normal 0 -1 0
    outer loop
      vertex 1.2 -1.2 0
      vertex -6.2 -1.2 10
      vertex -6.2 -1.2 0
    endloop
  endfacet
  facet normal 0 -1 0
    outer loop
      vertex 1.2 -1.2 0
      vertex 1.2 -1.2 10
      vertex -6.2 -1.2 10
    endloop
  endfacet
  facet normal 1 0 0
    outer loop
      vertex 1.2 8 0
      vertex 1.2 -1.2 10
      vertex 1.2 -1.2 0
    endloop
  endfacet
  facet normal 1 0 -0
    outer loop
      vertex 1.2 8 0
      vertex 1.2 8 10
      vertex 1.2 -1.2 10
    endloop
  endfacet
endsolid OpenSCAD_Model
