solid OpenSCAD_Model
  facet normal 0 0 -1
    outer loop
      vertex 0 21 0
      vertex 1.2 21 0
      vertex 0 0 0
    endloop
  endfacet
  facet normal -0 0 -1
    outer loop
      vertex 0 0 0
      vertex -8.2 -1.2 0
      vertex -7 0 0
    endloop
  endfacet
  facet normal 0 -0 -1
    outer loop
      vertex 1.2 21 0
      vertex 1.2 -1.2 0
      vertex 0 0 0
    endloop
  endfacet
  facet normal 0 -0 -1
    outer loop
      vertex 0 0 0
      vertex 1.2 -1.2 0
      vertex -8.2 -1.2 0
    endloop
  endfacet
  facet normal -0 -0 -1
    outer loop
      vertex -7 21 0
      vertex -7 0 0
      vertex -8.2 21 0
    endloop
  endfacet
  facet normal 0 0 -1
    outer loop
      vertex -8.2 21 0
      vertex -7 0 0
      vertex -8.2 -1.2 0
    endloop
  endfacet
  facet normal 0 0 1
    outer loop
      vertex 0 0 12
      vertex 1.2 21 12
      vertex 0 21 12
    endloop
  endfacet
  facet normal -0 0 1
    outer loop
      vertex -7 0 12
      vertex -8.2 -1.2 12
      vertex 0 0 12
    endloop
  endfacet
  facet normal -0 0 1
    outer loop
      vertex 0 0 12
      vertex 1.2 -1.2 12
      vertex 1.2 21 12
    endloop
  endfacet
  facet normal 0 0 1
    outer loop
      vertex -8.2 -1.2 12
      vertex 1.2 -1.2 12
      vertex 0 0 12
    endloop
  endfacet
  facet normal -0 0 1
    outer loop
      vertex -8.2 21 12
      vertex -7 0 12
      vertex -7 21 12
    endloop
  endfacet
  facet normal 0 0 1
    outer loop
      vertex -8.2 -1.2 12
      vertex -7 0 12
      vertex -8.2 21 12
    endloop
  endfacet
  facet normal 0 1 0
    outer loop
      vertex 0 21 0
      vertex 1.2 21 12
      vertex 1.2 21 0
    endloop
  endfacet
  facet normal 0 1 0
    outer loop
      vertex 0 21 0
      vertex 0 21 12
      vertex 1.2 21 12
    endloop
  endfacet
  facet normal -1 0 0
    outer loop
      vertex 0 0 0
      vertex 0 21 12
      vertex 0 21 0
    endloop
  endfacet
  facet normal -1 0 0
    outer loop
      vertex 0 0 0
      vertex 0 0 12
      vertex 0 21 12
    endloop
  endfacet
  facet normal 0 1 0
    outer loop
      vertex -7 0 0
      vertex 0 0 12
      vertex 0 0 0
    endloop
  endfacet
  facet normal 0 1 0
    outer loop
      vertex -7 0 0
      vertex -7 0 12
      vertex 0 0 12
    endloop
  endfacet
  facet normal 1 0 0
    outer loop
      vertex -7 21 0
      vertex -7 0 12
      vertex -7 0 0
    endloop
  endfacet
  facet normal 1 0 -0
    outer loop
      vertex -7 21 0
      vertex -7 21 12
      vertex -7 0 12
    endloop
  endfacet
  facet normal 0 1 0
    outer loop
      vertex -8.2 21 0
      vertex -7 21 12
      vertex -7 21 0
    endloop
  endfacet
  facet normal 0 1 0
    outer loop
      vertex -8.2 21 0
      vertex -8.2 21 12
      vertex -7 21 12
    endloop
  endfacet
  facet normal -1 0 0
    outer loop
      vertex -8.2 -1.2 0
      vertex -8.2 21 12
      vertex -8.2 21 0
    endloop
  endfacet
  facet normal -1 0 0
    outer loop
      vertex -8.2 -1.2 0
      vertex -8.2 -1.2 12
      vertex -8.2 21 12
    endloop
  endfacet
  facet normal 0 -1 0
    outer loop
      vertex 1.2 -1.2 0
      vertex -8.2 -1.2 12
      vertex -8.2 -1.2 0
    endloop
  endfacet
  facet normal 0 -1 0
    outer loop
      vertex 1.2 -1.2 0
      vertex 1.2 -1.2 12
      vertex -8.2 -1.2 12
    endloop
  endfacet
  facet normal 1 0 0
    outer loop
      vertex 1.2 21 0
      vertex 1.2 -1.2 12
      vertex 1.2 -1.2 0
    endloop
  endfacet
  facet normal 1 0 -0
    outer loop
      vertex 1.2 21 0
      vertex 1.2 21 12
      vertex 1.2 -1.2 12
    endloop
  endfacet
endsolid OpenSCAD_Model
