solid OpenSCAD_Model
  facet normal -1 0 0
    outer loop
      vertex -30 -22.5 -0.5
      vertex -30 22.5 0.5
      vertex -30 22.5 -0.5
    endloop
  endfacet
  facet normal -1 -0 0
    outer loop
      vertex -30 22.5 0.5
      vertex -30 -22.5 -0.5
      vertex -30 -22.5 0.5
    endloop
  endfacet
  facet normal -0 0 1
    outer loop
      vertex -24 2 0.5
      vertex -2 -2 0.5
      vertex -2 2 0.5
    endloop
  endfacet
  facet normal 0 0 1
    outer loop
      vertex -2 -2 0.5
      vertex -24 2 0.5
      vertex -24 -2 0.5
    endloop
  endfacet
  facet normal -0 0 1
    outer loop
      vertex 2 2 0.5
      vertex 24 -2 0.5
      vertex 24 2 0.5
    endloop
  endfacet
  facet normal 0 0 1
    outer loop
      vertex 24 -2 0.5
      vertex 2 2 0.5
      vertex 2 -2 0.5
    endloop
  endfacet
  facet normal 0 0 1
    outer loop
      vertex 24 2 0.5
      vertex 30 22.5 0.5
      vertex 24 16.5 0.5
    endloop
  endfacet
  facet normal 0 0 1
    outer loop
      vertex 30 22.5 0.5
      vertex 2 16.5 0.5
      vertex 24 16.5 0.5
    endloop
  endfacet
  facet normal 0 0 1
    outer loop
      vertex -2 2 0.5
      vertex 2 2 0.5
      vertex 2 16.5 0.5
    endloop
  endfacet
  facet normal 0 0 1
    outer loop
      vertex 2 2 0.5
      vertex -2 2 0.5
      vertex 2 -2 0.5
    endloop
  endfacet
  facet normal 0 0 1
    outer loop
      vertex -2 2 0.5
      vertex 2 16.5 0.5
      vertex -2 16.5 0.5
    endloop
  endfacet
  facet normal 0 0 1
    outer loop
      vertex 30 22.5 0.5
      vertex -2 16.5 0.5
      vertex 2 16.5 0.5
    endloop
  endfacet
  facet normal -0 0 1
    outer loop
      vertex -30 22.5 0.5
      vertex -2 16.5 0.5
      vertex 30 22.5 0.5
    endloop
  endfacet
  facet normal 0 0 1
    outer loop
      vertex -30 22.5 0.5
      vertex -24 2 0.5
      vertex -24 16.5 0.5
    endloop
  endfacet
  facet normal 0 0 1
    outer loop
      vertex -24 2 0.5
      vertex -30 22.5 0.5
      vertex -24 -2 0.5
    endloop
  endfacet
  facet normal 0 0 1
    outer loop
      vertex -30 -22.5 0.5
      vertex -24 -2 0.5
      vertex -30 22.5 0.5
    endloop
  endfacet
  facet normal 0 0 1
    outer loop
      vertex -2 16.5 0.5
      vertex -30 22.5 0.5
      vertex -24 16.5 0.5
    endloop
  endfacet
  facet normal 0 0 1
    outer loop
      vertex 30 22.5 0.5
      vertex 24 2 0.5
      vertex 30 -22.5 0.5
    endloop
  endfacet
  facet normal -0 0 1
    outer loop
      vertex 24 -2 0.5
      vertex 30 -22.5 0.5
      vertex 24 2 0.5
    endloop
  endfacet
  facet normal -0 0 1
    outer loop
      vertex 24 -16.5 0.5
      vertex 30 -22.5 0.5
      vertex 24 -2 0.5
    endloop
  endfacet
  facet normal -0 0 1
    outer loop
      vertex 2 -16.5 0.5
      vertex 30 -22.5 0.5
      vertex 24 -16.5 0.5
    endloop
  endfacet
  facet normal 0 0 1
    outer loop
      vertex -2 -2 0.5
      vertex 2 -2 0.5
      vertex -2 2 0.5
    endloop
  endfacet
  facet normal 0 0 1
    outer loop
      vertex 2 -2 0.5
      vertex -2 -2 0.5
      vertex 2 -16.5 0.5
    endloop
  endfacet
  facet normal 0 0 1
    outer loop
      vertex -2 -16.5 0.5
      vertex 2 -16.5 0.5
      vertex -2 -2 0.5
    endloop
  endfacet
  facet normal -0 0 1
    outer loop
      vertex -2 -16.5 0.5
      vertex 30 -22.5 0.5
      vertex 2 -16.5 0.5
    endloop
  endfacet
  facet normal 0 0 1
    outer loop
      vertex -30 -22.5 0.5
      vertex -2 -16.5 0.5
      vertex -24 -16.5 0.5
    endloop
  endfacet
  facet normal 0 0 1
    outer loop
      vertex -2 -16.5 0.5
      vertex -30 -22.5 0.5
      vertex 30 -22.5 0.5
    endloop
  endfacet
  facet normal 0 0 1
    outer loop
      vertex -24 -2 0.5
      vertex -30 -22.5 0.5
      vertex -24 -16.5 0.5
    endloop
  endfacet
  facet normal 1 -0 0
    outer loop
      vertex 30 -22.5 0.5
      vertex 30 22.5 -0.5
      vertex 30 22.5 0.5
    endloop
  endfacet
  facet normal 1 0 0
    outer loop
      vertex 30 22.5 -0.5
      vertex 30 -22.5 0.5
      vertex 30 -22.5 -0.5
    endloop
  endfacet
  facet normal 0 1 -0
    outer loop
      vertex 30 22.5 -0.5
      vertex -30 22.5 0.5
      vertex 30 22.5 0.5
    endloop
  endfacet
  facet normal 0 1 0
    outer loop
      vertex -30 22.5 0.5
      vertex 30 22.5 -0.5
      vertex -30 22.5 -0.5
    endloop
  endfacet
  facet normal 0 0 -1
    outer loop
      vertex -24 -2 -0.5
      vertex -2 2 -0.5
      vertex -2 -2 -0.5
    endloop
  endfacet
  facet normal -0 0 -1
    outer loop
      vertex -2 2 -0.5
      vertex -24 -2 -0.5
      vertex -24 2 -0.5
    endloop
  endfacet
  facet normal 0 0 -1
    outer loop
      vertex 2 -2 -0.5
      vertex 24 2 -0.5
      vertex 24 -2 -0.5
    endloop
  endfacet
  facet normal -0 0 -1
    outer loop
      vertex 24 2 -0.5
      vertex 2 -2 -0.5
      vertex 2 2 -0.5
    endloop
  endfacet
  facet normal 0 0 -1
    outer loop
      vertex 24 -2 -0.5
      vertex 30 -22.5 -0.5
      vertex 24 -16.5 -0.5
    endloop
  endfacet
  facet normal 0 0 -1
    outer loop
      vertex 30 -22.5 -0.5
      vertex 2 -16.5 -0.5
      vertex 24 -16.5 -0.5
    endloop
  endfacet
  facet normal 0 0 -1
    outer loop
      vertex -2 -2 -0.5
      vertex 2 -2 -0.5
      vertex 2 -16.5 -0.5
    endloop
  endfacet
  facet normal 0 0 -1
    outer loop
      vertex 2 -2 -0.5
      vertex -2 -2 -0.5
      vertex 2 2 -0.5
    endloop
  endfacet
  facet normal 0 0 -1
    outer loop
      vertex -2 -2 -0.5
      vertex 2 -16.5 -0.5
      vertex -2 -16.5 -0.5
    endloop
  endfacet
  facet normal 0 0 -1
    outer loop
      vertex 30 -22.5 -0.5
      vertex -2 -16.5 -0.5
      vertex 2 -16.5 -0.5
    endloop
  endfacet
  facet normal 0 0 -1
    outer loop
      vertex -30 -22.5 -0.5
      vertex -2 -16.5 -0.5
      vertex 30 -22.5 -0.5
    endloop
  endfacet
  facet normal 0 0 -1
    outer loop
      vertex -30 -22.5 -0.5
      vertex -24 -2 -0.5
      vertex -24 -16.5 -0.5
    endloop
  endfacet
  facet normal -0 0 -1
    outer loop
      vertex -24 -2 -0.5
      vertex -30 -22.5 -0.5
      vertex -24 2 -0.5
    endloop
  endfacet
  facet normal 0 0 -1
    outer loop
      vertex -30 22.5 -0.5
      vertex -24 2 -0.5
      vertex -30 -22.5 -0.5
    endloop
  endfacet
  facet normal -0 0 -1
    outer loop
      vertex -2 -16.5 -0.5
      vertex -30 -22.5 -0.5
      vertex -24 -16.5 -0.5
    endloop
  endfacet
  facet normal 0 0 -1
    outer loop
      vertex 30 -22.5 -0.5
      vertex 24 -2 -0.5
      vertex 30 22.5 -0.5
    endloop
  endfacet
  facet normal 0 0 -1
    outer loop
      vertex 24 2 -0.5
      vertex 30 22.5 -0.5
      vertex 24 -2 -0.5
    endloop
  endfacet
  facet normal 0 0 -1
    outer loop
      vertex 24 16.5 -0.5
      vertex 30 22.5 -0.5
      vertex 24 2 -0.5
    endloop
  endfacet
  facet normal 0 0 -1
    outer loop
      vertex 2 16.5 -0.5
      vertex 30 22.5 -0.5
      vertex 24 16.5 -0.5
    endloop
  endfacet
  facet normal 0 0 -1
    outer loop
      vertex -2 2 -0.5
      vertex 2 2 -0.5
      vertex -2 -2 -0.5
    endloop
  endfacet
  facet normal 0 0 -1
    outer loop
      vertex 2 2 -0.5
      vertex -2 2 -0.5
      vertex 2 16.5 -0.5
    endloop
  endfacet
  facet normal 0 0 -1
    outer loop
      vertex -2 16.5 -0.5
      vertex 2 16.5 -0.5
      vertex -2 2 -0.5
    endloop
  endfacet
  facet normal 0 0 -1
    outer loop
      vertex -2 16.5 -0.5
      vertex 30 22.5 -0.5
      vertex 2 16.5 -0.5
    endloop
  endfacet
  facet normal 0 0 -1
    outer loop
      vertex -30 22.5 -0.5
      vertex -2 16.5 -0.5
      vertex -24 16.5 -0.5
    endloop
  endfacet
  facet normal 0 0 -1
    outer loop
      vertex -2 16.5 -0.5
      vertex -30 22.5 -0.5
      vertex 30 22.5 -0.5
    endloop
  endfacet
  facet normal 0 0 -1
    outer loop
      vertex -24 2 -0.5
      vertex -30 22.5 -0.5
      vertex -24 16.5 -0.5
    endloop
  endfacet
  facet normal 0 -1 0
    outer loop
      vertex -30 -22.5 -0.5
      vertex 30 -22.5 0.5
      vertex -30 -22.5 0.5
    endloop
  endfacet
  facet normal 0 -1 -0
    outer loop
      vertex 30 -22.5 0.5
      vertex -30 -22.5 -0.5
      vertex 30 -22.5 -0.5
    endloop
  endfacet
  facet normal 1 -0 0
    outer loop
      vertex -24 -16.5 0.5
      vertex -24 -2 -0.5
      vertex -24 -2 0.5
    endloop
  endfacet
  facet normal 1 0 0
    outer loop
      vertex -24 -2 -0.5
      vertex -24 -16.5 0.5
      vertex -24 -16.5 -0.5
    endloop
  endfacet
  facet normal 1 -0 0
    outer loop
      vertex -24 2 0.5
      vertex -24 16.5 -0.5
      vertex -24 16.5 0.5
    endloop
  endfacet
  facet normal 1 0 0
    outer loop
      vertex -24 16.5 -0.5
      vertex -24 2 0.5
      vertex -24 2 -0.5
    endloop
  endfacet
  facet normal -1 0 0
    outer loop
      vertex 24 2 -0.5
      vertex 24 16.5 0.5
      vertex 24 16.5 -0.5
    endloop
  endfacet
  facet normal -1 -0 0
    outer loop
      vertex 24 16.5 0.5
      vertex 24 2 -0.5
      vertex 24 2 0.5
    endloop
  endfacet
  facet normal -1 0 0
    outer loop
      vertex 24 -16.5 -0.5
      vertex 24 -2 0.5
      vertex 24 -2 -0.5
    endloop
  endfacet
  facet normal -1 -0 0
    outer loop
      vertex 24 -2 0.5
      vertex 24 -16.5 -0.5
      vertex 24 -16.5 0.5
    endloop
  endfacet
  facet normal 0 -1 0
    outer loop
      vertex -24 16.5 -0.5
      vertex -2 16.5 0.5
      vertex -24 16.5 0.5
    endloop
  endfacet
  facet normal 0 -1 -0
    outer loop
      vertex -2 16.5 0.5
      vertex -24 16.5 -0.5
      vertex -2 16.5 -0.5
    endloop
  endfacet
  facet normal 0 -1 0
    outer loop
      vertex 2 16.5 -0.5
      vertex 24 16.5 0.5
      vertex 2 16.5 0.5
    endloop
  endfacet
  facet normal 0 -1 -0
    outer loop
      vertex 24 16.5 0.5
      vertex 2 16.5 -0.5
      vertex 24 16.5 -0.5
    endloop
  endfacet
  facet normal 0 1 -0
    outer loop
      vertex -2 -16.5 -0.5
      vertex -24 -16.5 0.5
      vertex -2 -16.5 0.5
    endloop
  endfacet
  facet normal 0 1 0
    outer loop
      vertex -24 -16.5 0.5
      vertex -2 -16.5 -0.5
      vertex -24 -16.5 -0.5
    endloop
  endfacet
  facet normal 0 1 -0
    outer loop
      vertex 24 -16.5 -0.5
      vertex 2 -16.5 0.5
      vertex 24 -16.5 0.5
    endloop
  endfacet
  facet normal 0 1 0
    outer loop
      vertex 2 -16.5 0.5
      vertex 24 -16.5 -0.5
      vertex 2 -16.5 -0.5
    endloop
  endfacet
  facet normal -1 0 0
    outer loop
      vertex -2 2 -0.5
      vertex -2 16.5 0.5
      vertex -2 16.5 -0.5
    endloop
  endfacet
  facet normal -1 -0 0
    outer loop
      vertex -2 16.5 0.5
      vertex -2 2 -0.5
      vertex -2 2 0.5
    endloop
  endfacet
  facet normal -1 0 0
    outer loop
      vertex -2 -16.5 -0.5
      vertex -2 -2 0.5
      vertex -2 -2 -0.5
    endloop
  endfacet
  facet normal -1 -0 0
    outer loop
      vertex -2 -2 0.5
      vertex -2 -16.5 -0.5
      vertex -2 -16.5 0.5
    endloop
  endfacet
  facet normal 1 -0 0
    outer loop
      vertex 2 2 0.5
      vertex 2 16.5 -0.5
      vertex 2 16.5 0.5
    endloop
  endfacet
  facet normal 1 0 0
    outer loop
      vertex 2 16.5 -0.5
      vertex 2 2 0.5
      vertex 2 2 -0.5
    endloop
  endfacet
  facet normal 1 -0 0
    outer loop
      vertex 2 -16.5 0.5
      vertex 2 -2 -0.5
      vertex 2 -2 0.5
    endloop
  endfacet
  facet normal 1 0 0
    outer loop
      vertex 2 -2 -0.5
      vertex 2 -16.5 0.5
      vertex 2 -16.5 -0.5
    endloop
  endfacet
  facet normal 0 -1 0
    outer loop
      vertex -24 -2 -0.5
      vertex -2 -2 0.5
      vertex -24 -2 0.5
    endloop
  endfacet
  facet normal 0 -1 -0
    outer loop
      vertex -2 -2 0.5
      vertex -24 -2 -0.5
      vertex -2 -2 -0.5
    endloop
  endfacet
  facet normal 0 -1 0
    outer loop
      vertex 2 -2 -0.5
      vertex 24 -2 0.5
      vertex 2 -2 0.5
    endloop
  endfacet
  facet normal 0 -1 -0
    outer loop
      vertex 24 -2 0.5
      vertex 2 -2 -0.5
      vertex 24 -2 -0.5
    endloop
  endfacet
  facet normal 0 1 -0
    outer loop
      vertex -2 2 -0.5
      vertex -24 2 0.5
      vertex -2 2 0.5
    endloop
  endfacet
  facet normal 0 1 0
    outer loop
      vertex -24 2 0.5
      vertex -2 2 -0.5
      vertex -24 2 -0.5
    endloop
  endfacet
  facet normal 0 1 -0
    outer loop
      vertex 24 2 -0.5
      vertex 2 2 0.5
      vertex 24 2 0.5
    endloop
  endfacet
  facet normal 0 1 0
    outer loop
      vertex 2 2 0.5
      vertex 24 2 -0.5
      vertex 2 2 -0.5
    endloop
  endfacet
endsolid OpenSCAD_Model
